<?xml version="1.0" encoding="UTF-8"?><svg id="a" xmlns="http://www.w3.org/2000/svg" viewBox="0 0 113.39 113.39"><defs><style>.b{fill:#1057c8;}</style></defs><path class="b" d="M46.69,78.61c20.35,0,31.48-16.86,31.48-31.48,0-.48,0-.96-.03-1.43,2.16-1.56,4.04-3.51,5.52-5.73-1.98,.88-4.12,1.48-6.36,1.74,2.28-1.37,4.04-3.54,4.87-6.12-2.14,1.27-4.5,2.19-7.02,2.68-2.02-2.15-4.89-3.49-8.08-3.49-6.11,0-11.07,4.95-11.07,11.06,0,.87,.1,1.71,.29,2.52-9.19-.46-17.35-4.87-22.81-11.56-.95,1.63-1.5,3.53-1.5,5.56,0,3.84,1.95,7.23,4.92,9.21-1.81-.06-3.52-.56-5.01-1.39,0,.05,0,.09,0,.14,0,5.36,3.82,9.83,8.88,10.85-.93,.25-1.91,.39-2.92,.39-.71,0-1.41-.07-2.08-.2,1.41,4.4,5.49,7.6,10.34,7.68-3.79,2.97-8.56,4.74-13.74,4.74-.89,0-1.77-.05-2.64-.15,4.9,3.14,10.71,4.97,16.96,4.97"/><g/></svg>